<svg width="695" height="683" viewBox="0 0 695 683" fill="none" xmlns="http://www.w3.org/2000/svg">
<path d="M676.154 222.085H478.537C417.413 222.085 358.813 197.328 316.08 153.598C312.473 149.984 306.343 152.514 306.343 157.574V393.934C306.343 406.222 291.558 412.366 282.903 403.692L94.301 214.857C21.4566 141.852 73.205 17.1668 176.161 17.1668H426.608C467.358 17.1668 506.485 33.4302 535.334 62.3427L681.564 209.074C686.432 213.772 683.006 222.265 676.154 222.085Z" stroke="url(#paint0_radial_3776_40015)" stroke-width="10" stroke-miterlimit="10"/>
<path d="M566.315 677.878H315.867C275.117 677.878 235.991 661.614 207.141 632.702L60.9117 486.151C56.0434 481.272 59.4692 472.779 66.3209 472.779H263.578C324.702 472.779 383.302 497.535 426.035 541.266C429.641 544.88 435.772 542.35 435.772 537.29L436.132 300.93C436.132 288.642 450.918 282.498 459.572 291.172L640.782 472.779L647.994 480.007C720.838 553.011 669.27 677.878 566.315 677.878Z" stroke="#323334" stroke-width="10" stroke-miterlimit="10"/>
<defs>
<radialGradient id="paint0_radial_3776_40015" cx="0" cy="0" r="1" gradientUnits="userSpaceOnUse" gradientTransform="translate(372.078 212.441) scale(268.794 269.384)">
<stop stop-color="#FFD600"/>
<stop offset="1" stop-color="#FFC200"/>
</radialGradient>
</defs>
</svg>
